<svg xmlns="http://www.w3.org/2000/svg" xmlns:xlink="http://www.w3.org/1999/xlink" viewBox="0 0 55.058 24.589" height="92.934" width="208.091"><defs><symbol overflow="visible" id="a"><path d="M3.203-3.75h.438L5.42-.984c.126.203.407.656.548.843.078.141.11.141.39.141h1.657c.203 0 .39 0 .39-.219 0-.093-.078-.172-.187-.203-.438-.094-1.016-.875-1.313-1.266-.078-.125-.672-.906-1.484-2.203 1.062-.187 2.094-.64 2.094-2.062 0-1.656-1.75-2.234-3.172-2.234H.594c-.219 0-.406 0-.406.218 0 .203.234.203.328.203.671 0 .734.079.734.672v6c0 .594-.063.672-.734.672-.094 0-.329 0-.329.203C.188 0 .376 0 .595 0h3.281c.219 0 .39 0 .39-.219 0-.203-.202-.203-.327-.203-.688 0-.735-.094-.735-.672zm2.313-.594c.328-.437.359-1.078.359-1.593 0-.579-.063-1.204-.453-1.704.5.11 1.672.485 1.672 1.688 0 .781-.36 1.39-1.578 1.61zM3.203-7.125c0-.25 0-.64.735-.64 1.015 0 1.53.421 1.53 1.827 0 1.532-.374 1.766-2.265 1.766zM1.578-.422c.094-.219.094-.547.094-.656V-7.11c0-.125 0-.438-.094-.657h1.36c-.157.188-.157.422-.157.61v6.078c0 .125 0 .437.094.656zM4.125-3.75c.078-.016.125-.031.219-.031.187 0 .453-.016.625-.047.187.297 1.468 2.422 2.468 3.406H6.282zm0 0"/></symbol><symbol overflow="visible" id="b"><path d="M2.984 2.984v-.437H1.828V-8.516h1.156v-.453H1.391V2.984zm0 0"/></symbol><symbol overflow="visible" id="d"><path d="M1.86-8.969H.25v.453h1.156V2.547H.25v.437h1.61zm0 0"/></symbol><symbol overflow="visible" id="g"><path d="M4.766-2.766h3.296c.172 0 .391 0 .391-.203 0-.234-.203-.234-.39-.234H4.765V-6.5c0-.172 0-.39-.22-.39-.218 0-.218.202-.218.39v3.297H1.031c-.172 0-.39 0-.39.219 0 .218.203.218.39.218h3.297V.531c0 .172 0 .39.219.39s.219-.202.219-.39zm0 0"/></symbol><symbol overflow="visible" id="h"><path d="M3.438-7.656c0-.282 0-.297-.235-.297-.281.328-.89.766-2.11.766v.343c.266 0 .86 0 1.532-.297v6.22c0 .437-.047.577-1.094.577h-.375V0c.328-.031 1.485-.031 1.875-.031.406 0 1.547 0 1.875.031v-.344h-.375c-1.047 0-1.093-.14-1.093-.578zm0 0"/></symbol><symbol overflow="visible" id="c"><path d="M5.672-4.86L4.547-7.468c.156-.281.516-.343.672-.343.062 0 .203-.016.203-.22 0-.124-.11-.124-.188-.124-.203 0-.437.015-.64.015H3.89c-.72 0-1.25-.015-1.266-.015-.094 0-.203 0-.203.219 0 .125.094.125.25.125.703 0 .75.109.86.406l1.421 3.312L2.36-1.312c-.421.468-.937.921-1.828.968-.14.016-.234.016-.234.219 0 .047.016.125.14.125.172 0 .344-.031.516-.031h.563c.39 0 .796.031 1.171.031.079 0 .235 0 .235-.219 0-.11-.094-.125-.156-.125-.25-.031-.407-.156-.407-.344 0-.203.157-.359.5-.718l1.063-1.157c.265-.265.89-.968 1.156-1.234l1.25 2.953c.016.016.063.14.063.156 0 .11-.266.313-.641.344-.078 0-.203.016-.203.219 0 .125.125.125.172.125.203 0 .453-.031.656-.031h1.313c.218 0 .437.031.64.031.094 0 .219 0 .219-.234 0-.11-.125-.11-.235-.11-.703-.015-.734-.078-.937-.515L5.797-4.563l1.516-1.625c.125-.125.39-.421.5-.546.515-.532 1-1.016 1.968-1.079.11-.015.235-.015.235-.218 0-.125-.11-.125-.157-.125-.171 0-.343.015-.515.015h-.547c-.375 0-.797-.015-1.172-.015-.078 0-.219 0-.219.203 0 .125.078.14.14.14.204.016.407.11.407.344l-.016.016c-.015.094-.03.203-.171.36zm0 0"/></symbol><symbol overflow="visible" id="e"><path d="M3.922-8.516c.062-.125.062-.156.062-.203 0-.14-.109-.25-.25-.25-.093 0-.187.063-.265.281L1.375-3.202c-.031.078-.063.14-.063.219 0 .03 0 .062.063.203l2.094 5.484c.047.125.11.281.265.281.141 0 .25-.109.25-.234 0-.031 0-.063-.062-.188l-2.11-5.546zm0 0"/></symbol><symbol overflow="visible" id="i"><path d="M3.266-2.781c.062-.14.062-.172.062-.203 0-.047 0-.063-.062-.204l-2.094-5.5c-.078-.203-.14-.28-.281-.28-.125 0-.235.109-.235.25 0 .03 0 .046.063.187l2.11 5.547L.718 2.53c-.063.14-.063.156-.063.219 0 .125.11.234.235.234.156 0 .203-.109.25-.234zm0 0"/></symbol><symbol overflow="visible" id="f"><path d="M2.25-1.625a9.23 9.23 0 01.594-.5c.484-.453.953-.89.953-1.61 0-.953-.797-1.562-1.781-1.562-.97 0-1.594.719-1.594 1.438 0 .39.312.437.422.437.172 0 .422-.11.422-.422 0-.406-.407-.406-.5-.406.234-.594.765-.781 1.156-.781.734 0 1.125.625 1.125 1.297 0 .828-.578 1.437-1.531 2.39l-1 1.047C.422-.219.422-.203.422 0h3.14l.235-1.422h-.25c-.016.156-.078.547-.172.703-.047.063-.656.063-.781.063H1.172zm0 0"/></symbol></defs><path style="font-variant-east_asian:normal" color="#000" overflow="visible" fill="#00a8f0" fill-opacity=".137" d="M0 0h55.058v24.589H0z"/><g transform="translate(-101.21 -76.057) scale(1.81949)" fill="#1976d2" stroke-width=".55"><use y="20.922" x="22.733" xlink:href="#a" width="100%" height="100%" transform="translate(73.18 42.358) scale(.26458)"/><use y="20.922" x="31.367" xlink:href="#b" width="100%" height="100%" transform="translate(73.18 42.358) scale(.26458)"/><use y="20.922" x="34.619" xlink:href="#c" width="100%" height="100%" transform="translate(73.18 42.358) scale(.26458)"/><use y="20.922" x="45.274" xlink:href="#d" width="100%" height="100%" transform="translate(73.18 42.358) scale(.26458)"/><path style="line-height:normal;font-variant-ligatures:normal;font-variant-position:normal;font-variant-caps:normal;font-variant-numeric:normal;font-variant-alternates:normal;font-feature-settings:normal;text-indent:0;text-align:start;text-decoration-line:none;text-decoration-style:solid;text-decoration-color:#000;text-transform:none;text-orientation:mixed;white-space:normal;shape-padding:0;isolation:auto;mix-blend-mode:normal;solid-color:#000;solid-opacity:1" d="M76.66 49.18v.125h11.895v-.125z" color="#000" font-weight="400" font-family="sans-serif" overflow="visible"/><use y="37.21" x="13.151" xlink:href="#e" width="100%" height="100%" transform="translate(73.18 42.358) scale(.26458)"/><use y="37.21" x="17.8" xlink:href="#c" width="100%" height="100%" transform="translate(73.18 42.358) scale(.26458)"/><use y="33.756" x="28.455" xlink:href="#f" width="100%" height="100%" transform="translate(73.18 42.358) scale(.26458)"/><use y="37.21" x="35.844" xlink:href="#g" width="100%" height="100%" transform="translate(73.18 42.358) scale(.26458)"/><use y="37.21" x="47.603" xlink:href="#h" width="100%" height="100%" transform="translate(73.18 42.358) scale(.26458)"/><use y="37.21" x="53.458" xlink:href="#i" width="100%" height="100%" transform="translate(73.18 42.358) scale(.26458)"/></g></svg>