<svg xmlns="http://www.w3.org/2000/svg" viewBox="0 0 63.494 36.107" height="136.466" width="239.979"><path color="#000" overflow="visible" opacity=".542" fill="#03a9f4" fill-opacity=".25" d="M63.494 0H0v36.107h63.494z"/><path d="M-1.431 18.2l.205.01.18.028.2.05.203.07.201.087c.74.373 1.21.824 1.77 1.225l.18.128.212.144c.254.154.94.633 1.768.496l.18-.037.197-.06.201-.08.198-.096c.727-.4 1.191-.86 1.766-1.283l.204-.148.195-.132c.325-.199 1.055-.693 1.97-.386l.19.072.207.098.18.1.203.13.197.14.197.152c.635.485 1.124 1.051 1.97 1.506l.188.084.193.068c.979.3 1.734-.386 1.979-.558l.191-.157.19-.167.203-.188C15.884 18.22 16.97 16.67 19 19.02l.202.225.202.23.187.213.193.22.2.22.2.208.205.198c.173.135.893.916 1.751.563l.204-.1.193-.126c.844-.68 1.251-1.476 1.764-2.186l.212-.31.19-.27.204-.272.185-.23.202-.225.19-.185.198-.16.194-.121.203-.084.098-.025.098-.014.1-.002.1.01.099.02.1.034.181.092.21.155.186.182.2.238.19.268.212.34.183.327.208.402.19.39.208.445.179.395.203.454.198.435.196.425.196.406.189.365c.123.152.58 1.257 1.236 1.34l.048.002.05-.003.048-.007.102-.03.102-.053.094-.067.094-.087.192-.236.212-.356.193-.408.196-.501.2-.596.184-.622.196-.736.195-.803.208-.93c.674-3.17 1.18-6.344 1.759-9.516l.209-1.13.18-.944.208-1.033.195-.91.193-.836.193-.76.197-.692.21-.63.19-.48.19-.377.202-.29.101-.102.1-.071.049-.024.047-.016.048-.01.047-.004.052.004.05.011.052.02.052.027.09.066.089.09.2.284.203.402.202.51.187.566.193.674.2.785.2.862c.608 2.785 1.062 5.573 1.562 8.36l.209 1.169.185 1.01.204 1.074.194.978c.413 1.834.713 3.719 1.572 5.54l.19.322.213.263c.105.102.386.378.78.162l.096-.059.095-.074.198-.202.194-.252.203-.315.196-.345c.59-1.115 1.017-2.237 1.578-3.354l.183-.354.209-.37c.15-.212.64-1.19 1.37-1.31l.094-.01.094.003.102.013.101.025.194.08.205.126.185.149.204.198.196.22.195.242.204.274.188.265.192.281.213.315c.44.616.82 1.296 1.555 1.886l.212.139.19.093.19.06.203.03.205-.005.185-.037.197-.069.193-.097c.908-.583 1.36-1.326 1.965-1.949l.202-.215.202-.203c.223-.176 1.05-1.144 2.15-.689l.2.093.2.114.204.139.181.138c.776.617 1.262 1.29 2.17 1.89l.186.106.2.094c1.018.437 1.836-.232 2.168-.456l.19-.144.199-.16.194-.163.398-.34.2-.169.199-.16c.247-.168 1.108-.976 2.147-.745l.204.054.197.072c.945.43 1.472 1.034 2.168 1.511l.187.13.193.123.212.12.193.093c.926.417 1.631.101 2.158-.203l.204-.128.186-.125c.682-.456 1.22-1.044 2.166-1.45l.189-.066.202-.05.202-.03.19-.01" opacity=".61" fill="none" stroke="#1976d2" stroke-width=".425" stroke-miterlimit="10"/></svg>