<svg xmlns="http://www.w3.org/2000/svg" viewBox="0 0 57.496 27.73" height="104.807" width="217.307"><defs><marker id="a" orient="auto-start-reverse" refY="0" refX="0" markerHeight="1.69" markerWidth=".911"><path d="M-2.088 2.784C-1.914 1.74 0 .174.522 0 0-.174-1.914-1.74-2.088-2.784" fill="none" stroke="#000" stroke-width=".806" stroke-linecap="round" stroke-linejoin="round" stroke-miterlimit="10"/></marker></defs><g transform="translate(-45.619 -73.689)"><circle transform="rotate(-15)" r="33.574" cy="79.493" cx="40.118" color="#000" overflow="visible" fill="#ff5722" fill-opacity=".25" stroke="#000" stroke-width=".154" stroke-linecap="round" stroke-linejoin="round"/><path d="M28.466 79.975l4.445 11.088" color="#000" overflow="visible" fill="none" stroke="#000" stroke-width=".308" stroke-linecap="round" stroke-linejoin="round" marker-end="url(#a)"/><path d="M55.597 99.767a.154.154 0 00.033.298l11.824 1.695a.154.154 0 10.044-.305l-11.824-1.694a.154.154 0 00-.077.006z" style="line-height:normal;font-variant-ligatures:normal;font-variant-position:normal;font-variant-caps:normal;font-variant-numeric:normal;font-variant-alternates:normal;font-feature-settings:normal;text-indent:0;text-align:start;text-decoration-line:none;text-decoration-style:solid;text-decoration-color:#000;text-transform:none;text-orientation:mixed;white-space:normal;shape-padding:0;isolation:auto;mix-blend-mode:normal;solid-color:#000;solid-opacity:1" color="#000" font-weight="400" font-family="sans-serif" overflow="visible"/><path d="M66.718 102.366c.099-.31.751-.705.918-.735-.152-.076-.667-.638-.675-.964" fill="none" stroke="#000" stroke-width=".248" stroke-linecap="round" stroke-linejoin="round" stroke-miterlimit="10"/><path d="M93.855 76.793a.154.154 0 00-.084.057l-7.381 9.393a.155.155 0 10.243.191l7.38-9.394a.154.154 0 00-.158-.247z" style="line-height:normal;font-variant-ligatures:normal;font-variant-position:normal;font-variant-caps:normal;font-variant-numeric:normal;font-variant-alternates:normal;font-feature-settings:normal;text-indent:0;text-align:start;text-decoration-line:none;text-decoration-style:solid;text-decoration-color:#000;text-transform:none;text-orientation:mixed;white-space:normal;shape-padding:0;isolation:auto;mix-blend-mode:normal;solid-color:#000;solid-opacity:1" color="#000" font-weight="400" font-family="sans-serif" overflow="visible"/><path d="M94.169 77.981c-.22-.24-.235-1.002-.178-1.162-.142.093-.886.259-1.172.102" fill="none" stroke="#000" stroke-width=".248" stroke-linecap="round" stroke-linejoin="round" stroke-miterlimit="10"/><path d="M39.388 93.586l9.393 7.38" color="#000" overflow="visible" fill="none" stroke="#000" stroke-width=".308" stroke-linecap="round" stroke-linejoin="round" marker-end="url(#a)"/><path d="M83.955 92.664a.154.154 0 00-.024.008l-11.088 4.446a.154.154 0 10.114.284l11.09-4.443a.154.154 0 00-.092-.295z" style="line-height:normal;font-variant-ligatures:normal;font-variant-position:normal;font-variant-caps:normal;font-variant-numeric:normal;font-variant-alternates:normal;font-feature-settings:normal;text-indent:0;text-align:start;text-decoration-line:none;text-decoration-style:solid;text-decoration-color:#000;text-transform:none;text-orientation:mixed;white-space:normal;shape-padding:0;isolation:auto;mix-blend-mode:normal;solid-color:#000;solid-opacity:1" color="#000" font-weight="400" font-family="sans-serif" overflow="visible"/><path d="M83.71 93.851c-.07-.318.298-.986.428-1.095-.17.01-.897-.219-1.066-.497" fill="none" stroke="#000" stroke-width=".248" stroke-linecap="round" stroke-linejoin="round" stroke-miterlimit="10"/><path d="M94.491 58.1a.154.154 0 00-.11.128l-1.696 11.824a.154.154 0 10.305.044l1.695-11.824a.154.154 0 00-.194-.173z" style="line-height:normal;font-variant-ligatures:normal;font-variant-position:normal;font-variant-caps:normal;font-variant-numeric:normal;font-variant-alternates:normal;font-feature-settings:normal;text-indent:0;text-align:start;text-decoration-line:none;text-decoration-style:solid;text-decoration-color:#000;text-transform:none;text-orientation:mixed;white-space:normal;shape-padding:0;isolation:auto;mix-blend-mode:normal;solid-color:#000;solid-opacity:1" color="#000" font-weight="400" font-family="sans-serif" overflow="visible"/><path d="M95.29 59.008c-.31-.098-.704-.75-.734-.917-.076.151-.638.667-.964.674" fill="none" stroke="#000" stroke-width=".248" stroke-linecap="round" stroke-linejoin="round" stroke-miterlimit="10"/><path style="font-variant-east_asian:normal" color="#000" overflow="visible" fill="#ff5722" fill-opacity=".069" d="M45.619 73.689h57.496v27.73H45.619z"/></g></svg>