<svg xmlns="http://www.w3.org/2000/svg" viewBox="0 0 57.496 27.73" height="104.807" width="217.307"><path d="M0 0h57.496v27.73H0z" overflow="visible" color="#000" fill="#ff5722" fill-opacity=".069"/><path d="M38.616 5.185c-3.011.005-6.02.401-8.919 1.212-3.084.982-6.364 2.486-8 5.436-.09.152-.168.307-.24.464-1.94 3.953-3.955 7.876-5.849 11.845-.783 2.16.573 4.42 2.306 5.67 3.04 2.272 6.86 3.192 10.563 3.697 7.152.85 14.541-.041 21.241-2.702 4.123-1.709 8.247-4.205 10.466-8.213 1.458-2.617 1.397-5.983-.24-8.504-2.189-3.57-6.072-5.684-9.921-7.038a35.6 35.6 0 00-11.407-1.867zm-2.884 10.968c4.338.07 8.816.582 12.734 2.563 1.338.718 2.965 1.818 2.944 3.51-.204 1.743-2.095 2.513-3.554 3.007-4.56 1.28-9.427.8-13.973-.295-4.207-1.135-8.511-2.94-11.34-6.386l-.039-.095c4.178-1.699 8.743-2.263 13.228-2.304z" color="#000" overflow="visible" fill="#ff5420" fill-opacity=".251"/><path d="M21.511 12.188c-1.956 3.989-3.991 7.948-5.903 11.954-.783 2.16.573 4.42 2.306 5.67 3.04 2.272 6.86 3.192 10.563 3.697 7.152.85 14.541-.041 21.241-2.702 4.123-1.709 8.247-4.205 10.466-8.214 1.458-2.616 1.397-5.982-.24-8.503-2.189-3.57-6.072-5.684-9.921-7.038-6.506-2.195-13.698-2.509-20.326-.655-3.084.981-6.364 2.485-8 5.436-1.262 2.133-.656 4.873.846 6.719 2.829 3.447 7.133 5.25 11.34 6.386 4.546 1.095 9.413 1.575 13.973.295 1.46-.494 3.35-1.264 3.554-3.008.021-1.69-1.606-2.79-2.944-3.51-3.918-1.98-8.396-2.491-12.734-2.562-4.485.04-9.05.605-13.228 2.304" color="#000" overflow="visible" fill="none" stroke="#000" stroke-width=".14"/><path d="M18.255 18.73c-.696 2.195.414 4.52 2.039 5.999 3.658 3.304 8.693 4.53 13.47 5.068 5.8.548 11.874-.045 17.16-2.633 2.211-1.187 4.599-2.991 4.984-5.65.374-2.542-1.565-4.751-3.554-6.049-4.552-2.96-10.158-3.782-15.487-3.868-5.344.118-10.943.96-15.516 3.905l-.198.124" fill="none" stroke="#000" stroke-width=".14"/></svg>