<?xml version="1.0" encoding="UTF-8" standalone="no"?>
<!-- Generator: Adobe Illustrator 16.0.0, SVG Export Plug-In . SVG Version: 6.00 Build 0)  -->

<svg
   version="1.1"
   id="Capa_1"
   x="0px"
   y="0px"
   width="97.056px"
   height="97.056px"
   viewBox="0 0 97.056 97.056"
   style="enable-background:new 0 0 97.056 97.056;"
   xml:space="preserve"
   sodipodi:docname="graduate-hat.svg"
   inkscape:version="1.3.2 (091e20e, 2023-11-25, custom)"
   xmlns:inkscape="http://www.inkscape.org/namespaces/inkscape"
   xmlns:sodipodi="http://sodipodi.sourceforge.net/DTD/sodipodi-0.dtd"
   xmlns="http://www.w3.org/2000/svg"
   xmlns:svg="http://www.w3.org/2000/svg"><defs
   id="defs19" /><sodipodi:namedview
   id="namedview19"
   pagecolor="#505050"
   bordercolor="#eeeeee"
   borderopacity="1"
   inkscape:showpageshadow="0"
   inkscape:pageopacity="0"
   inkscape:pagecheckerboard="0"
   inkscape:deskcolor="#505050"
   inkscape:zoom="8.5620673"
   inkscape:cx="48.528"
   inkscape:cy="48.528"
   inkscape:window-width="1920"
   inkscape:window-height="1027"
   inkscape:window-x="-8"
   inkscape:window-y="-8"
   inkscape:window-maximized="1"
   inkscape:current-layer="Capa_1" />
<g
   id="g4">
	<g
   id="g3">
		<path
   d="M86.021,43.476L49.929,57.239L13.838,43.675l-2.056,18.832c-0.096,0.774,0.175,1.549,0.732,2.095    c0.558,0.545,1.337,0.799,2.109,0.688c1.976-0.288,3.997-0.434,6.005-0.434c11.994,0,22.726,5.081,26.705,12.643    c0.432,0.822,1.284,1.336,2.212,1.336h0.766c0.928,0,1.78-0.514,2.212-1.335c3.98-7.562,14.711-12.643,26.703-12.643    c2.013,0,4.034,0.146,6.007,0.434c0.121,0.019,0.374,0.025,0.381,0.026c1.381,0,2.602-1.039,2.5-2.5    C88.1,62.602,86.021,43.476,86.021,43.476z"
   id="path1" />
		<path
   d="M95.436,29.301L50.809,12.505c-0.568-0.214-1.193-0.214-1.762,0L4.306,29.345c-0.974,0.367-1.619,1.299-1.619,2.34V62.09    h5.609V35.441l40.752,15.337c0.568,0.214,1.192,0.214,1.762,0l44.627-16.797c0.974-0.367,1.619-1.299,1.619-2.34    S96.409,29.668,95.436,29.301z"
   id="path2" />
		<path
   d="M0.014,81.949c-0.074,0.705,0.154,1.408,0.628,1.935C1.116,84.41,1.791,84.71,2.5,84.71h5.982    c0.708,0,1.384-0.301,1.858-0.827s0.703-1.229,0.628-1.935L9.335,66.445h-7.69L0.014,81.949z"
   id="path3" />
	</g>
</g>
<g
   id="g5">
</g>
<g
   id="g6">
</g>
<g
   id="g7">
</g>
<g
   id="g8">
</g>
<g
   id="g9">
</g>
<g
   id="g10">
</g>
<g
   id="g11">
</g>
<g
   id="g12">
</g>
<g
   id="g13">
</g>
<g
   id="g14">
</g>
<g
   id="g15">
</g>
<g
   id="g16">
</g>
<g
   id="g17">
</g>
<g
   id="g18">
</g>
<g
   id="g19">
</g>
<path
   style="fill:#ffffff;stroke-width:0.116794"
   d="m 2.6862671,47.025616 c 0,-9.609906 0.042519,-15.27793 0.1176213,-15.679624 0.1421963,-0.760554 0.6135717,-1.468352 1.1671152,-1.752495 0.2248289,-0.115408 10.5394694,-4.022476 22.9214234,-8.682373 17.683669,-6.655174 22.62604,-8.472539 23.041295,-8.472539 0.41517,0 5.297667,1.794628 22.745117,8.360277 12.219057,4.598153 22.452321,8.463689 22.740586,8.59008 1.018997,0.446785 1.519781,1.192234 1.519781,2.262293 0,1.145542 -0.561255,1.880869 -1.810311,2.371775 -0.321184,0.126232 -10.464762,3.949627 -22.541285,8.496433 -15.503808,5.837177 -22.12895,8.280273 -22.541285,8.312354 -0.538259,0.04188 -2.187391,-0.558493 -21.067414,-7.669658 -11.265892,-4.2433 -20.5291337,-7.715092 -20.5849808,-7.715092 -0.05693,0 -0.1015403,5.849496 -0.1015403,13.314541 V 62.07613 H 5.4893285 2.6862671 Z"
   id="path19" /><path
   style="fill:#ffffff;stroke-width:0.116794"
   d="M 1.6386093,84.489887 C 0.74784428,84.126926 0.11590046,83.245717 0.09774565,82.341243 0.09204309,82.057141 0.44860188,78.379857 0.89009853,74.169502 L 1.6928197,66.51431 h 3.799248 3.7992479 l 0.7965234,7.586654 c 0.438088,4.172659 0.794457,7.853384 0.791932,8.179388 -0.0059,0.764725 -0.382338,1.454338 -1.0496914,1.923098 l -0.5062092,0.355568 -3.6983828,0.02421 c -2.2713353,0.01487 -3.8097009,-0.02115 -3.9868783,-0.09334 z"
   id="path20" /><path
   style="fill:#ffffff;stroke-width:0.116794"
   d="M 48.505677,78.493136 C 48.023055,78.268431 47.811032,78.072117 47.466249,77.530725 47.228025,77.156656 46.755906,76.43014 46.417094,75.916245 43.030683,70.779893 35.992984,66.837768 27.66594,65.412898 c -4.106959,-0.702757 -7.794942,-0.78762 -12.327191,-0.283657 -1.619265,0.180053 -2.098901,0.06814 -2.791935,-0.65146 -0.875115,-0.908658 -0.886906,-0.377064 0.237194,-10.694041 0.549422,-5.042591 1.028387,-9.358437 1.064365,-9.59077 l 0.06542,-0.422424 17.073517,6.418556 c 9.390434,3.530205 17.497026,6.574875 18.014648,6.765933 l 0.941132,0.347379 17.960708,-6.848979 c 9.878389,-3.766938 17.989243,-6.820442 18.02412,-6.785565 0.03488,0.03488 0.53997,4.469922 1.12243,9.855656 l 1.059017,9.792244 -0.286045,0.576544 c -0.181217,0.365254 -0.47153,0.705236 -0.792174,0.927703 -0.455167,0.315801 -0.596287,0.35116 -1.401531,0.35116 -0.492471,0 -1.578648,-0.07422 -2.413727,-0.16493 -1.862043,-0.202267 -6.180306,-0.214334 -8.000404,-0.02236 -7.582885,0.799815 -13.966094,3.325096 -18.629653,7.370131 -1.590625,1.379663 -2.452689,2.443969 -4.193015,5.176704 -0.568623,0.892876 -1.264884,1.244697 -2.463281,1.244697 -0.619476,0 -0.964457,-0.06839 -1.423854,-0.282286 z"
   id="path21" /></svg>
