<?xml version="1.0" encoding="UTF-8" standalone="no"?>
<!-- Generator: Adobe Illustrator 18.1.1, SVG Export Plug-In . SVG Version: 6.00 Build 0)  -->

<svg
   version="1.1"
   id="Capa_1"
   x="0px"
   y="0px"
   viewBox="0 0 26.39 26.39"
   style="enable-background:new 0 0 26.39 26.39;"
   xml:space="preserve"
   sodipodi:docname="home.svg"
   inkscape:version="1.3.2 (091e20e, 2023-11-25, custom)"
   xmlns:inkscape="http://www.inkscape.org/namespaces/inkscape"
   xmlns:sodipodi="http://sodipodi.sourceforge.net/DTD/sodipodi-0.dtd"
   xmlns="http://www.w3.org/2000/svg"
   xmlns:svg="http://www.w3.org/2000/svg"><defs
   id="defs17" /><sodipodi:namedview
   id="namedview17"
   pagecolor="#505050"
   bordercolor="#eeeeee"
   borderopacity="1"
   inkscape:showpageshadow="0"
   inkscape:pageopacity="0"
   inkscape:pagecheckerboard="0"
   inkscape:deskcolor="#505050"
   inkscape:zoom="31.489201"
   inkscape:cx="13.195"
   inkscape:cy="13.195"
   inkscape:window-width="1920"
   inkscape:window-height="1027"
   inkscape:window-x="-8"
   inkscape:window-y="-8"
   inkscape:window-maximized="1"
   inkscape:current-layer="Capa_1" />
<g
   id="g2">
	<g
   id="c14_house">
		<path
   d="M3.588,24.297c0,0-0.024,0.59,0.553,0.59c0.718,0,6.652-0.008,6.652-0.008l0.01-5.451c0,0-0.094-0.898,0.777-0.898h2.761    c1.031,0,0.968,0.898,0.968,0.898l-0.012,5.434c0,0,5.628,0,6.512,0c0.732,0,0.699-0.734,0.699-0.734V14.076L13.33,5.913    l-9.742,8.164C3.588,14.077,3.588,24.297,3.588,24.297z"
   id="path1" />
		<path
   d="M0,13.317c0,0,0.826,1.524,2.631,0l10.781-9.121l10.107,9.064c2.088,1.506,2.871,0,2.871,0L13.412,1.504L0,13.317z"
   id="path2" />
		<polygon
   points="23.273,4.175 20.674,4.175 20.685,7.328 23.273,9.525   "
   id="polygon2" />
	</g>
	<g
   id="Capa_1_216_">
	</g>
</g>
<g
   id="g3">
</g>
<g
   id="g4">
</g>
<g
   id="g5">
</g>
<g
   id="g6">
</g>
<g
   id="g7">
</g>
<g
   id="g8">
</g>
<g
   id="g9">
</g>
<g
   id="g10">
</g>
<g
   id="g11">
</g>
<g
   id="g12">
</g>
<g
   id="g13">
</g>
<g
   id="g14">
</g>
<g
   id="g15">
</g>
<g
   id="g16">
</g>
<g
   id="g17">
</g>
<path
   style="fill:#ffffff;stroke-width:0.0317569"
   d="M 3.9537364,24.836068 C 3.7791743,24.771297 3.6656467,24.634613 3.62361,24.438602 3.598833,24.323071 3.5885798,22.781023 3.5886954,19.187555 l 1.635e-4,-5.087483 4.8462687,-4.061059 C 11.100576,7.805431 13.300345,5.9762325 13.323504,5.9741277 c 0.02316,-0.0021 2.092965,1.8182262 4.599568,4.0451803 l 4.55746,4.049007 0.0014,5.128742 0.0014,5.128743 -0.07541,0.161944 c -0.08382,0.180017 -0.194292,0.273838 -0.384448,0.326507 -0.08915,0.02469 -1.110229,0.03524 -3.424649,0.03536 l -3.297621,1.77e-4 0.0098,-2.835718 0.0098,-2.835717 -0.08833,-0.180542 c -0.04858,-0.0993 -0.141012,-0.224196 -0.205401,-0.277551 -0.228184,-0.189085 -0.269339,-0.192654 -2.110143,-0.182987 l -1.669437,0.0088 -0.137673,0.09668 c -0.07572,0.05317 -0.173401,0.160355 -0.217067,0.238177 l -0.07939,0.141496 -0.02477,2.904063 c -0.01362,1.597234 -0.03166,2.910958 -0.04009,2.919385 -0.0084,0.0084 -1.5120868,0.02028 -3.3414648,0.02634 -2.8814078,0.0095 -3.3431269,0.0047 -3.4531698,-0.03611 z"
   id="path17" /><path
   style="fill:#ffffff;stroke-width:0.0317569"
   d="M 0.87331526,13.944908 C 0.78598374,13.92367 0.63952362,13.865462 0.54784832,13.815556 0.379946,13.724154 0.01767521,13.376697 0.03715273,13.325744 0.04291819,13.310661 3.0529783,10.651612 6.7261754,7.4167448 12.628944,2.2183655 13.41084,1.5400726 13.457445,1.5773858 c 0.029,0.023219 2.939972,2.6560902 6.468824,5.8508242 3.528853,3.194734 6.421791,5.81323 6.428752,5.81888 0.03039,0.02467 -0.168002,0.261914 -0.308826,0.369308 -0.44153,0.336715 -0.950291,0.380938 -1.595288,0.138667 -0.30451,-0.114378 -0.717116,-0.34865 -0.930188,-0.528147 C 23.428454,13.149192 14.447664,5.1074732 13.477858,4.2341835 13.411628,4.1745441 13.392175,4.1905883 8.0156682,8.7392957 5.048021,11.250026 2.5199115,13.380473 2.3976474,13.473621 2.1140875,13.689655 1.7198452,13.88248 1.4408637,13.941586 c -0.2576466,0.05459 -0.3544113,0.05515 -0.56754844,0.0033 z"
   id="path18" /><path
   style="fill:#ffffff;stroke-width:0.0317569"
   d="M 22.028342,8.4487504 C 21.367327,7.8847599 20.799838,7.3964884 20.767254,7.3637022 20.711304,7.3074048 20.7075,7.2171529 20.698822,5.740049 l -0.0092,-1.5640422 1.278216,1.4e-5 1.278216,1.4e-5 v 2.6517027 c 0,1.4584365 -0.0036,2.6505207 -0.0079,2.6490764 -0.0044,-0.00144 -0.548769,-0.464073 -1.209783,-1.0280635 z"
   id="path19" /></svg>
