<?xml version="1.0" encoding="UTF-8" standalone="no"?>
<!-- Generator: Adobe Illustrator 19.0.0, SVG Export Plug-In . SVG Version: 6.00 Build 0)  -->

<svg
   version="1.1"
   id="Layer_1"
   x="0px"
   y="0px"
   viewBox="0 0 512 512"
   style="enable-background:new 0 0 512 512;"
   xml:space="preserve"
   sodipodi:docname="inbox.svg"
   inkscape:version="1.3.2 (091e20e, 2023-11-25, custom)"
   xmlns:inkscape="http://www.inkscape.org/namespaces/inkscape"
   xmlns:sodipodi="http://sodipodi.sourceforge.net/DTD/sodipodi-0.dtd"
   xmlns="http://www.w3.org/2000/svg"
   xmlns:svg="http://www.w3.org/2000/svg"><defs
   id="defs23" /><sodipodi:namedview
   id="namedview23"
   pagecolor="#505050"
   bordercolor="#eeeeee"
   borderopacity="1"
   inkscape:showpageshadow="0"
   inkscape:pageopacity="0"
   inkscape:pagecheckerboard="0"
   inkscape:deskcolor="#505050"
   inkscape:zoom="1.6230469"
   inkscape:cx="256"
   inkscape:cy="256"
   inkscape:window-width="1920"
   inkscape:window-height="1027"
   inkscape:window-x="-8"
   inkscape:window-y="-8"
   inkscape:window-maximized="1"
   inkscape:current-layer="Layer_1" />
<g
   id="g2">
	<g
   id="g1">
		<path
   d="M508.65,115.988L363.186,261.451l141.875,141.979c4.295-7.385,6.939-15.85,6.939-24.992V133.563    C512,127.357,510.722,121.476,508.65,115.988z"
   id="path1" />
	</g>
</g>
<g
   id="g4">
	<g
   id="g3">
		<path
   d="M461.913,83.476H50.087c-8.327,0-16.066,2.236-22.982,5.847L245.76,307.976c6.344,6.344,17.363,6.344,23.596,0    l217.626-217.52C479.58,86.133,471.088,83.476,461.913,83.476z"
   id="path2" />
	</g>
</g>
<g
   id="g6">
	<g
   id="g5">
		<path
   d="M4.201,113.611C1.527,119.733,0,126.465,0,133.563v244.875c0,8.997,2.573,17.327,6.743,24.632l143.407-143.51    L4.201,113.611z"
   id="path4" />
	</g>
</g>
<g
   id="g8">
	<g
   id="g7">
		<path
   d="M339.478,285.159l-46.414,46.525c-19.496,19.275-51.084,19.591-70.901,0l-48.306-48.417L32.006,425.017    c5.625,2.192,11.69,3.507,18.081,3.507h411.826c6.235,0,12.146-1.284,17.657-3.376L339.478,285.159z"
   id="path6" />
	</g>
</g>
<g
   id="g9">
</g>
<g
   id="g10">
</g>
<g
   id="g11">
</g>
<g
   id="g12">
</g>
<g
   id="g13">
</g>
<g
   id="g14">
</g>
<g
   id="g15">
</g>
<g
   id="g16">
</g>
<g
   id="g17">
</g>
<g
   id="g18">
</g>
<g
   id="g19">
</g>
<g
   id="g20">
</g>
<g
   id="g21">
</g>
<g
   id="g22">
</g>
<g
   id="g23">
</g>
<path
   style="fill:#ffffff;stroke-width:0.616125"
   d="m 254.45969,312.11123 c -1.18604,-0.24403 -3.26547,-1.0285 -4.62094,-1.7433 -1.51929,-0.80118 -44.61534,-43.46635 -112.36719,-111.24372 L 27.568879,89.180101 32.422225,87.313481 C 42.216327,83.54662 26.524808,83.79302 256.61613,83.79302 h 211.33092 l 4.96571,1.326948 c 2.73113,0.729821 6.88012,2.194986 9.21996,3.255922 l 4.25426,1.928974 L 376.73861,199.95695 C 300.03106,276.6671 266.34986,309.95361 264.62575,310.756 c -2.98292,1.38825 -7.24437,1.95634 -10.16606,1.35523 z"
   id="path23" /><path
   style="fill:#ffffff;stroke-width:0.616125"
   d="m 4.3727796,397.44934 c -4.40794377,-10.58836 -4.06471702,1.32968 -4.06471702,-141.14128 0,-122.2208 0.052423,-128.37761 1.13230312,-132.9832 0.6227667,-2.65604 1.5467709,-5.82113 2.0533426,-7.03352 l 0.9210396,-2.20436 72.6518251,72.64987 72.651827,72.64987 -71.315483,71.31747 C 39.179399,369.9288 6.9049133,402.02166 6.6818366,402.02166 c -0.2230767,0 -1.2621527,-2.05754 -2.309057,-4.57232 z"
   id="path24" /><path
   style="fill:#ffffff;stroke-width:0.616125"
   d="m 45.285199,427.89102 c -4.530672,-0.47976 -12.014441,-2.34902 -12.014441,-3.00089 0,-0.21006 31.699369,-32.08038 70.443042,-70.82294 l 70.44304,-70.44103 22.58276,23.0004 c 12.42051,12.65022 24.73558,24.87546 27.36682,27.1672 14.07901,12.26247 32.73263,15.86597 50.49681,9.75497 10.02458,-3.44853 12.39193,-5.39076 39.74671,-32.6091 l 25.07917,-24.95409 69.49604,69.20949 c 38.22282,38.06521 69.57534,69.40188 69.67227,69.63701 0.2953,0.71638 -7.01023,2.49995 -12.68672,3.09733 -6.4004,0.67357 -414.253655,0.63639 -420.625501,-0.0383 z"
   id="path25" /><path
   style="fill:#ffffff;stroke-width:0.616125"
   d="m 434.36822,332.09144 -70.54433,-70.54634 72.39371,-72.40582 72.39371,-72.40583 1.10807,3.55385 c 0.60944,1.95462 1.38488,6.60367 1.72321,10.33123 0.39275,4.32717 0.54666,51.54936 0.42572,130.61853 l -0.18942,123.84116 -1.32987,4.67848 c -1.18069,4.15365 -4.73289,12.88109 -5.2428,12.88109 -0.10652,0 -31.93862,-31.74586 -70.738,-70.54635 z"
   id="path26" /></svg>
