<?xml version="1.0" encoding="UTF-8" standalone="no"?>
<!-- Generator: Adobe Illustrator 17.1.0, SVG Export Plug-In . SVG Version: 6.00 Build 0)  -->

<svg
   version="1.1"
   id="Capa_1"
   x="0px"
   y="0px"
   viewBox="0 0 378.604 195.503"
   xml:space="preserve"
   sodipodi:docname="key.svg"
   width="378.604"
   height="195.50301"
   inkscape:version="1.3.2 (091e20e, 2023-11-25, custom)"
   xmlns:inkscape="http://www.inkscape.org/namespaces/inkscape"
   xmlns:sodipodi="http://sodipodi.sourceforge.net/DTD/sodipodi-0.dtd"
   xmlns="http://www.w3.org/2000/svg"
   xmlns:svg="http://www.w3.org/2000/svg"><defs
   id="defs37" /><sodipodi:namedview
   id="namedview35"
   pagecolor="#ffffff"
   bordercolor="#666666"
   borderopacity="1.0"
   inkscape:showpageshadow="2"
   inkscape:pageopacity="0.0"
   inkscape:pagecheckerboard="0"
   inkscape:deskcolor="#d1d1d1"
   showgrid="false"
   inkscape:zoom="1.5875182"
   inkscape:cx="188.65925"
   inkscape:cy="22.361948"
   inkscape:window-width="1920"
   inkscape:window-height="1027"
   inkscape:window-x="-8"
   inkscape:window-y="-8"
   inkscape:window-maximized="1"
   inkscape:current-layer="Capa_1" />
<path
   d="M 97.751,195.503 C 43.851,195.503 0,151.651 0,97.751 0,43.851 43.851,0 97.751,0 c 45.67,0 84.12,31.483 94.799,73.885 h 162.188 c 13.16,0 23.866,10.707 23.866,23.867 0,9.859 -6.009,18.34 -14.557,21.975 v 14.35 6.108 10.653 c 0,5.514 -4.378,10 -9.76,10 -5.382,0 -9.761,-4.486 -9.761,-10 v -10.653 h -8.38 v 10.653 c 0,5.514 -4.378,10 -9.761,10 -5.383,0 -9.761,-4.486 -9.761,-10 v -10.653 h -8.38 v 10.653 c 0,5.514 -4.378,10 -9.761,10 -5.383,0 -9.761,-4.486 -9.761,-10 v -10.653 -6.108 -12.459 h -96.173 c -10.677,42.401 -49.128,73.885 -94.798,73.885 z m 55.021,-97.752 c 0,-30.387 -24.634,-55.021 -55.021,-55.021 -30.387,0 -55.021,24.634 -55.021,55.021 0,30.387 24.634,55.021 55.021,55.021 30.387,0 55.021,-24.634 55.021,-55.021 z"
   id="path2" />
<g
   id="g4"
   transform="matrix(0,1,1,0,-5e-4,-470.1555)">
</g>
<g
   id="g6"
   transform="matrix(0,1,1,0,-5e-4,-470.1555)">
</g>
<g
   id="g8"
   transform="matrix(0,1,1,0,-5e-4,-470.1555)">
</g>
<g
   id="g10"
   transform="matrix(0,1,1,0,-5e-4,-470.1555)">
</g>
<g
   id="g12"
   transform="matrix(0,1,1,0,-5e-4,-470.1555)">
</g>
<g
   id="g14"
   transform="matrix(0,1,1,0,-5e-4,-470.1555)">
</g>
<g
   id="g16"
   transform="matrix(0,1,1,0,-5e-4,-470.1555)">
</g>
<g
   id="g18"
   transform="matrix(0,1,1,0,-5e-4,-470.1555)">
</g>
<g
   id="g20"
   transform="matrix(0,1,1,0,-5e-4,-470.1555)">
</g>
<g
   id="g22"
   transform="matrix(0,1,1,0,-5e-4,-470.1555)">
</g>
<g
   id="g24"
   transform="matrix(0,1,1,0,-5e-4,-470.1555)">
</g>
<g
   id="g26"
   transform="matrix(0,1,1,0,-5e-4,-470.1555)">
</g>
<g
   id="g28"
   transform="matrix(0,1,1,0,-5e-4,-470.1555)">
</g>
<g
   id="g30"
   transform="matrix(0,1,1,0,-5e-4,-470.1555)">
</g>
<g
   id="g32"
   transform="matrix(0,1,1,0,-5e-4,-470.1555)">
</g>
<path
   style="fill:#800000;stroke-width:0.890833"
   d="M 83.292882,194.00826 C 64.049898,191.33119 43.853727,180.85984 28.89542,165.80415 14.687291,151.50353 6.3934754,135.99273 2.3011545,116.06855 0.49392421,107.26973 0.46240467,89.311519 2.2377651,79.952582 8.6777001,46.004005 32.693794,17.885544 65.160566,6.2814715 99.560846,-6.0136643 137.39624,1.9168713 164.12821,27.02571 c 11.65563,10.947916 20.4908,24.650681 25.65341,39.786762 l 2.43076,7.126664 84.5102,0.445416 84.51019,0.445417 3.67754,1.967131 c 4.5486,2.433052 10.58736,9.163249 11.96366,13.33346 0.56708,1.718292 0.87754,5.841316 0.68989,9.16227 -0.42961,7.6029 -3.76595,13.50081 -9.84643,17.40629 l -4.16085,2.6725 -0.0517,16.92582 c -0.0464,15.18282 -0.23134,17.22045 -1.79611,19.78678 -3.11258,5.10483 -9.89006,5.37884 -14.39747,0.58206 -1.80889,-1.92503 -2.15882,-3.33042 -2.42766,-9.75008 l -0.31412,-7.50084 h -4.27134 -4.27134 l -0.31411,7.55526 c -0.29435,7.0796 -0.48907,7.73019 -3.09284,10.33366 -3.19307,3.19271 -7.60278,3.71899 -11.2327,1.34058 -3.22278,-2.11165 -4.25066,-5.15618 -4.25066,-12.59017 v -6.63933 h -4.45417 -4.45416 l -0.005,5.12229 c -0.0102,10.48027 -3.18467,15.36687 -9.98285,15.36687 -2.6936,0 -4.11836,-0.60665 -6.11569,-2.60398 l -2.60398,-2.60397 V 138.14763 121.5987 h -48.78423 -48.78423 l -1.61749,5.64793 c -2.07025,7.22883 -8.26426,19.57056 -13.51473,26.92843 -14.19759,19.89614 -37.0589,34.53892 -61.02144,39.08454 -6.80073,1.29008 -25.515627,1.72111 -32.505708,0.74866 z m 33.581288,-44.14998 c 16.34576,-6.32874 28.72113,-19.39852 33.92789,-35.83166 1.60569,-5.06774 1.96464,-8.23829 1.91627,-16.925827 -0.054,-9.702169 -0.31416,-11.364609 -2.81514,-17.990477 -3.54638,-9.395472 -7.91021,-15.902096 -15.0576,-22.451377 -30.38493,-27.842273 -80.116915,-13.001943 -90.74666,27.07936 -1.904707,7.182029 -1.910333,20.717091 -0.01167,28.061241 3.746924,14.49328 15.150313,28.66922 28.283248,35.15986 9.929627,4.9075 14.451977,5.81321 27.402779,5.48811 9.433333,-0.2368 12.047233,-0.63257 17.100873,-2.58923 z"
   id="path1" /></svg>
