<?xml version="1.0" encoding="UTF-8" standalone="no"?>
<!-- Generator: Adobe Illustrator 17.1.0, SVG Export Plug-In . SVG Version: 6.00 Build 0)  -->

<svg
   version="1.1"
   id="Capa_1"
   x="0px"
   y="0px"
   viewBox="0 0 378.604 195.503"
   xml:space="preserve"
   sodipodi:docname="key.svg"
   width="378.604"
   height="195.50301"
   inkscape:version="1.2.1 (1:1.2.1+202210291244+9c6d41e410)"
   xmlns:inkscape="http://www.inkscape.org/namespaces/inkscape"
   xmlns:sodipodi="http://sodipodi.sourceforge.net/DTD/sodipodi-0.dtd"
   xmlns="http://www.w3.org/2000/svg"
   xmlns:svg="http://www.w3.org/2000/svg"><defs
   id="defs37" /><sodipodi:namedview
   id="namedview35"
   pagecolor="#ffffff"
   bordercolor="#666666"
   borderopacity="1.0"
   inkscape:showpageshadow="2"
   inkscape:pageopacity="0.0"
   inkscape:pagecheckerboard="0"
   inkscape:deskcolor="#d1d1d1"
   showgrid="false"
   inkscape:zoom="1.1225449"
   inkscape:cx="213.35449"
   inkscape:cy="102.89121"
   inkscape:window-width="1868"
   inkscape:window-height="1016"
   inkscape:window-x="52"
   inkscape:window-y="27"
   inkscape:window-maximized="1"
   inkscape:current-layer="Capa_1" />
<path
   d="M 97.751,195.503 C 43.851,195.503 0,151.651 0,97.751 0,43.851 43.851,0 97.751,0 c 45.67,0 84.12,31.483 94.799,73.885 h 162.188 c 13.16,0 23.866,10.707 23.866,23.867 0,9.859 -6.009,18.34 -14.557,21.975 v 14.35 6.108 10.653 c 0,5.514 -4.378,10 -9.76,10 -5.382,0 -9.761,-4.486 -9.761,-10 v -10.653 h -8.38 v 10.653 c 0,5.514 -4.378,10 -9.761,10 -5.383,0 -9.761,-4.486 -9.761,-10 v -10.653 h -8.38 v 10.653 c 0,5.514 -4.378,10 -9.761,10 -5.383,0 -9.761,-4.486 -9.761,-10 v -10.653 -6.108 -12.459 h -96.173 c -10.677,42.401 -49.128,73.885 -94.798,73.885 z m 55.021,-97.752 c 0,-30.387 -24.634,-55.021 -55.021,-55.021 -30.387,0 -55.021,24.634 -55.021,55.021 0,30.387 24.634,55.021 55.021,55.021 30.387,0 55.021,-24.634 55.021,-55.021 z"
   id="path2" />
<g
   id="g4"
   transform="matrix(0,1,1,0,-5e-4,-470.1555)">
</g>
<g
   id="g6"
   transform="matrix(0,1,1,0,-5e-4,-470.1555)">
</g>
<g
   id="g8"
   transform="matrix(0,1,1,0,-5e-4,-470.1555)">
</g>
<g
   id="g10"
   transform="matrix(0,1,1,0,-5e-4,-470.1555)">
</g>
<g
   id="g12"
   transform="matrix(0,1,1,0,-5e-4,-470.1555)">
</g>
<g
   id="g14"
   transform="matrix(0,1,1,0,-5e-4,-470.1555)">
</g>
<g
   id="g16"
   transform="matrix(0,1,1,0,-5e-4,-470.1555)">
</g>
<g
   id="g18"
   transform="matrix(0,1,1,0,-5e-4,-470.1555)">
</g>
<g
   id="g20"
   transform="matrix(0,1,1,0,-5e-4,-470.1555)">
</g>
<g
   id="g22"
   transform="matrix(0,1,1,0,-5e-4,-470.1555)">
</g>
<g
   id="g24"
   transform="matrix(0,1,1,0,-5e-4,-470.1555)">
</g>
<g
   id="g26"
   transform="matrix(0,1,1,0,-5e-4,-470.1555)">
</g>
<g
   id="g28"
   transform="matrix(0,1,1,0,-5e-4,-470.1555)">
</g>
<g
   id="g30"
   transform="matrix(0,1,1,0,-5e-4,-470.1555)">
</g>
<g
   id="g32"
   transform="matrix(0,1,1,0,-5e-4,-470.1555)">
</g>
</svg>
