<svg xmlns="http://www.w3.org/2000/svg" viewBox="0 0 63.577 28.039" height="105.973" width="240.292"><path overflow="visible" d="M0 0h63.577v28.039H0z" color="#000" fill="#ff5722" fill-opacity=".069"/><path fill="none" stroke-linejoin="round" stroke-linecap="round" stroke-width=".154" stroke="#000" overflow="visible" color="#000" style="isolation:auto;mix-blend-mode:normal;solid-color:#000;solid-opacity:1;font-variant-east_asian:normal" d="M59.18 7.078c10.428-1.044 25.964 7.984 15.186 19.733-5.014 5.466-12.708 4.3-27.424 2.303-9.431-2.203-21.326 4.591-28.667-4.447C9.728 14.146 19.404 1.178 32.868 6.92c14.584 6.219 13.104 1.48 26.313.158z"/><path style="font-variant-east_asian:normal" transform="matrix(.42089 0 0 .41942 7.084 -78.38)" overflow="visible" d="M34.62 223.81c1.106.477 14.826 16.595 45.437 6.774m-39.009-2.174s15.346-12.221 31.714 4.054" stroke-width=".367" fill="none" color="#000" stroke="#000" fill-opacity=".25" stroke-linecap="round" stroke-linejoin="round"/><path style="font-variant-east_asian:normal" fill="none" stroke-width=".154" stroke="#000" overflow="visible" color="#000" d="M50.22 21.065c.324.133 7.836 5.113 19.211-2.189M53.336 22.23s4.555-6.454 12.982-1.638" stroke-linecap="round" stroke-linejoin="round"/><ellipse cx="49.65" cy="25.105" rx=".771" ry=".77"/><path fill="none" stroke-linejoin="round" stroke-linecap="round" stroke-width=".14" stroke="#000" overflow="visible" color="#000" style="isolation:auto;mix-blend-mode:normal;solid-color:#000;solid-opacity:1" d="M49.53 25.096c6.821 3.417 26.83 3.708 22.692-8.687-.759-2.273-3.598-4.413-5.58-4.94-6.81-1.814-13.814 1.207-17.254 6.261-1.41 2.072-1.998 4.717.215 7.511"/><path stroke-width=".14" stroke="#000" fill-opacity=".137" fill="#00a8f0" overflow="visible" color="#000" d="M67.79 25.578l.545.058-.263.448"/><path fill="none" stroke-linejoin="round" stroke-linecap="round" stroke-width=".14" stroke="#000" overflow="visible" color="#000" style="isolation:auto;mix-blend-mode:normal;solid-color:#000;solid-opacity:1" d="M49.603 25.241c-6.489-.188-5.107-7.702-9.28-10.678-2.236-1.595-5.285-2.788-7.944-3.257-2.69-.474-7.014-.8-9.43 1.25-1.515 1.286-2.363 2.844-1.728 5.699 1.474 6.622 26.817 10.739 28.382 6.986z"/><path fill="none" stroke-width=".14" stroke="#000" overflow="visible" color="#000" d="M49.53 25.096s1.233-2.606 4.713-2.533"/><path fill="none" stroke-dasharray="1.05330634,1.05330634" stroke-width=".14" stroke="#000" overflow="visible" color="#000" d="M54.243 22.563c2.793-.245 4.121 8.07-1.595 7.311"/><path fill="none" stroke-width=".14" stroke="#000" overflow="visible" color="#000" d="M52.648 29.874s-2.211-.144-3.045-4.633"/><path fill="none" stroke-linejoin="round" stroke-linecap="round" stroke-width=".14" stroke="#000" overflow="visible" color="#000" style="isolation:auto;mix-blend-mode:normal;solid-color:#000;solid-opacity:1" d="M49.603 25.241c-4.21 1.639-9.627-3.747-12.759-5.936"/><path fill="none" stroke-dasharray="1.05330634,1.05330634" stroke-width=".14" stroke="#000" overflow="visible" color="#000" d="M36.844 19.305c-4.459.724-5.039 9.99.616 9.52"/><path fill="none" stroke-width=".14" stroke="#000" overflow="visible" color="#000" d="M37.46 28.825c6.518-2.867 11.086 1.53 12.143-3.584"/><path overflow="visible" style="isolation:auto;mix-blend-mode:normal;solid-color:#000;solid-opacity:1" d="M25.318 5.305c-8.633.096-14.25 10.645-7.44 19.03 7.34 9.038 19.632 2.442 29.063 4.645 14.716 1.997 22.41 3.163 27.425-2.303C85.143 14.926 69.589 5.729 59.18 6.944c-13.34 1.556-11.499 6.22-26.312-.158-2.731-1.176-5.349-1.506-7.55-1.481zm4.59 10.16c2.674-.022 5.292 1.19 7.8 3.518-1.71.749-3.871.635-5.994.559-3.058-.25-5.49-1.02-7.354-2.256 1.863-1.211 3.719-1.805 5.548-1.82zm29.321 3.322c3.368-.038 5.364.72 7.09 1.67-1.615 1.089-5.373 1.665-6.194 2.085-1.217.623-7.184-.236-6.79-.446 0 0 2.526-3.27 5.894-3.31z" color="#000" fill="#ff5722" fill-opacity=".25" fill-rule="evenodd"/></svg>