<?xml version="1.0" encoding="UTF-8" standalone="no"?>
<!-- Generator: Adobe Illustrator 16.0.0, SVG Export Plug-In . SVG Version: 6.00 Build 0)  -->

<svg
   version="1.1"
   id="Capa_1"
   x="0px"
   y="0px"
   width="31.161px"
   height="31.161px"
   viewBox="0 0 31.161 31.161"
   style="enable-background:new 0 0 31.161 31.161;"
   xml:space="preserve"
   sodipodi:docname="telephone.svg"
   inkscape:version="1.3.2 (091e20e, 2023-11-25, custom)"
   xmlns:inkscape="http://www.inkscape.org/namespaces/inkscape"
   xmlns:sodipodi="http://sodipodi.sourceforge.net/DTD/sodipodi-0.dtd"
   xmlns="http://www.w3.org/2000/svg"
   xmlns:svg="http://www.w3.org/2000/svg"><defs
   id="defs16" /><sodipodi:namedview
   id="namedview16"
   pagecolor="#505050"
   bordercolor="#eeeeee"
   borderopacity="1"
   inkscape:showpageshadow="0"
   inkscape:pageopacity="0"
   inkscape:pagecheckerboard="0"
   inkscape:deskcolor="#505050"
   inkscape:zoom="26.667951"
   inkscape:cx="15.5805"
   inkscape:cy="15.5805"
   inkscape:window-width="1920"
   inkscape:window-height="1027"
   inkscape:window-x="-8"
   inkscape:window-y="-8"
   inkscape:window-maximized="1"
   inkscape:current-layer="Capa_1" />
<g
   id="g1">
	<path
   d="M12.024,7.431c-1.267,0.08-2.385,0.229-3.357,0.451C7.698,8.104,7.015,8.425,6.616,8.851   c0.063,0.266,0.096,0.709,0.096,1.328v0.61H0C0.244,8.841,0.752,7.355,1.523,6.33c0.731-0.956,1.736-1.584,3.008-1.885   c1.273-0.301,2.141-0.496,2.604-0.584C8.188,3.667,9.311,3.529,10.5,3.449c1.188-0.08,2.889-0.12,5.1-0.12   c3.251,0,5.537,0.066,6.846,0.2c1.313,0.133,2.674,0.42,4.088,0.862c1.414,0.443,2.461,1.116,3.146,2.018   c0.746,0.992,1.239,2.453,1.481,4.38h-6.61v-0.318c0-0.743,0.022-1.282,0.075-1.62c-0.41-0.442-1.116-0.773-2.123-0.995   c-1.002-0.221-2.065-0.367-3.198-0.438c-1.134-0.07-2.363-0.106-3.703-0.106C14.481,7.31,13.289,7.351,12.024,7.431z M6.711,11.292   v1.143c0,0.548-0.271,0.823-0.811,0.823H0.672c-0.141,0-0.286-0.089-0.442-0.266C0.076,12.814,0,12.628,0,12.435v-1.143H6.711z    M2.604,26.213v-5.361c0-0.584,0.076-1.078,0.229-1.475c0.156-0.398,0.412-0.828,0.771-1.289l5.806-7.884V8.532h2.506l0.117,1.673   h6.98V8.532h2.834v1.805l5.996,7.752c0.45,0.551,0.729,0.982,0.838,1.303c0.11,0.316,0.166,0.806,0.166,1.461v5.361   c0,1.08-0.438,1.619-1.313,1.619H3.797C3.002,27.833,2.604,27.293,2.604,26.213z M20.085,17.346   c1.252-0.602,1.879-1.326,1.879-2.177c0-0.833-0.629-1.544-1.889-2.137c-1.261-0.593-2.752-0.889-4.475-0.889   c-1.748,0-3.252,0.301-4.513,0.902c-1.26,0.602-1.891,1.311-1.891,2.124c0,0.851,0.627,1.576,1.881,2.177   c1.252,0.604,2.762,0.902,4.521,0.902C17.337,18.249,18.831,17.948,20.085,17.346z M31.161,12.435c0,0.212-0.062,0.402-0.183,0.57   c-0.123,0.168-0.254,0.253-0.396,0.253h-5.342c-0.166,0-0.324-0.076-0.472-0.226c-0.147-0.15-0.225-0.349-0.225-0.597v-1.144h6.613   v1.143L31.161,12.435L31.161,12.435z"
   id="path1" />
</g>
<g
   id="g2">
</g>
<g
   id="g3">
</g>
<g
   id="g4">
</g>
<g
   id="g5">
</g>
<g
   id="g6">
</g>
<g
   id="g7">
</g>
<g
   id="g8">
</g>
<g
   id="g9">
</g>
<g
   id="g10">
</g>
<g
   id="g11">
</g>
<g
   id="g12">
</g>
<g
   id="g13">
</g>
<g
   id="g14">
</g>
<g
   id="g15">
</g>
<g
   id="g16">
</g>
<path
   style="fill:#ffffff;stroke-width:0.0374982"
   d="m 3.4079215,27.753142 c -0.3537028,-0.126396 -0.5420098,-0.331 -0.682908,-0.742009 -0.080599,-0.235111 -0.081499,-0.2679 -0.092518,-3.368522 -0.013471,-3.7904 -0.012872,-3.797533 0.3857142,-4.593528 0.1754399,-0.350363 0.6724371,-1.044885 3.3001909,-4.611811 L 9.4120467,10.237941 V 9.3843902 8.5308392 h 1.2344613 1.234461 l 0.01992,0.10312 c 0.01095,0.056716 0.04018,0.4363852 0.06495,0.8437094 l 0.04504,0.7405894 h 3.519105 3.519105 V 9.3745485 8.5308392 h 1.387433 1.387433 l 0.0011,0.9093312 0.0011,0.9093316 3.094464,3.993557 c 3.441248,4.441101 3.448034,4.450107 3.630456,4.818518 0.262965,0.531069 0.258487,0.466105 0.275241,3.993558 0.01616,3.401658 0.0082,3.591187 -0.167741,3.986076 -0.122183,0.274261 -0.381389,0.514444 -0.648179,0.600607 -0.181464,0.05861 -1.05826,0.06298 -12.331089,0.06145 -9.8246133,-0.0013 -12.1615693,-0.01088 -12.2713925,-0.05012 z m 12.9412915,-9.5117 c 1.434731,-0.08273 2.646192,-0.363533 3.687532,-0.854731 1.281544,-0.604502 1.937197,-1.355634 1.937197,-2.2193 0,-0.498742 -0.189576,-0.896471 -0.627993,-1.317525 -0.835972,-0.802866 -2.291233,-1.377672 -4.134278,-1.632978 -0.662732,-0.0918 -2.552674,-0.09144 -3.237353,6.19e-4 -1.497887,0.201406 -2.871735,0.680094 -3.754933,1.308326 -0.4152035,0.295341 -0.6992306,0.608471 -0.8754054,0.965103 -0.1341378,0.271536 -0.1381729,0.291862 -0.1381729,0.695993 0,0.407308 0.00311,0.422583 0.144191,0.70799 0.6094184,1.232863 2.8294263,2.196299 5.4011943,2.344003 0.767725,0.04409 0.873817,0.04426 1.598021,0.0025 z"
   id="path16" /><path
   style="fill:#ffffff;stroke-width:0.0374982"
   d="m 0.03749819,10.689284 c 0,-0.145302 0.17739801,-1.1287339 0.27777111,-1.5398645 C 0.59047821,8.0221567 1.0240689,7.0341411 1.5513524,6.3327789 1.7869511,6.0193991 2.369794,5.4691813 2.695584,5.2525965 3.3629882,4.8089071 3.8608609,4.6232925 5.2620938,4.2957626 8.6669336,3.4999015 10.261629,3.3576529 15.78674,3.3569525 c 5.057534,-6.411e-4 6.919724,0.1161284 8.894389,0.5577265 1.569319,0.3509497 2.714309,0.7505761 3.496493,1.2203523 0.483967,0.2906683 0.788194,0.5316242 1.151994,0.9124094 0.657628,0.6883313 1.14272,1.6609112 1.478177,2.9636521 0.126013,0.489369 0.315708,1.4977222 0.315708,1.6781912 v 0.09145 h -3.287046 -3.287046 l 0.02396,-0.759339 c 0.01318,-0.4176358 0.03482,-0.8618004 0.0481,-0.987032 L 24.645603,8.8066665 24.406594,8.6269778 C 23.79252,8.1653113 23.012129,7.9014211 21.523963,7.6522126 19.952701,7.3890885 17.5717,7.2648233 14.905532,7.3067935 11.672903,7.3576815 9.4602679,7.591401 8.0433626,8.0316414 7.5926426,8.171683 7.020875,8.4642262 6.7955757,8.6700681 l -0.1964736,0.1795057 0.034271,0.2437383 c 0.018849,0.134056 0.045737,0.5685663 0.059751,0.9655789 l 0.025479,0.72184 H 3.3780508 0.03749819 Z"
   id="path17" /><path
   style="fill:#ffffff;stroke-width:0.0374982"
   d="M 0.49511554,13.176561 C 0.33035174,13.094235 0.21151346,12.963219 0.09063751,12.730637 0.03460344,12.622819 0.01966772,12.483936 0.00696103,11.952549 L -0.00850651,11.305706 H 3.333086 6.6746786 v 0.70452 c 0,0.65604 -0.00581,0.716033 -0.084371,0.871833 -0.059133,0.117265 -0.1348461,0.195354 -0.2531128,0.261058 l -0.1687419,0.09375 -2.7561172,0.0101 c -2.75375818,0.01009 -2.75625518,0.01003 -2.91722016,-0.0704 z"
   id="path18" /><path
   style="fill:#ffffff;stroke-width:0.0374982"
   d="m 25.067543,13.199261 c -0.18974,-0.06712 -0.412999,-0.303116 -0.465445,-0.492001 -0.0222,-0.07995 -0.04046,-0.428008 -0.04057,-0.77346 l -2.09e-4,-0.628094 h 3.281092 3.281092 l -8.23e-4,0.684342 c -7.02e-4,0.583161 -0.011,0.706518 -0.06963,0.834334 -0.07865,0.171452 -0.245433,0.349671 -0.372592,0.39814 -0.04775,0.0182 -1.296436,0.03235 -2.774866,0.03144 -2.218778,-0.0014 -2.71424,-0.01091 -2.838047,-0.05471 z"
   id="path19" /></svg>
