<svg version="1.1" xmlns="http://www.w3.org/2000/svg" xmlns:xlink="http://www.w3.org/1999/xlink" width="800" height="800"><defs/><g transform="scale(2,2)"><g id="background-55969a91"><rect fill="white" stroke="none" x="0" y="0" width="400" height="400" class="dcg-svg-background"/></g><g id="background-images-55969a91"/><g id="graphpaper-55969a91"><g id="axis-55969a91"><g id="yaxis-55969a91"><title>Y axis</title><g><path fill="none" stroke="rgb(0,0,0)" class="dcg-svg-axis-line" paint-order="fill stroke markers" d=" M 200 3 L 200 397" stroke-opacity="0.9" stroke-miterlimit="10" stroke-width="1.5" stroke-dasharray=""/><g class="dcg-svg-axis-line"><path fill="rgb(0,0,0)" stroke="rgb(0,0,0)" class="dcg-svg-axis-line" paint-order="stroke fill markers" d=" M 200 398.5 L 196.89417145876976 386.9088900845312 L 203.10582854123024 386.9088900845312 L 200 398.5 L 196.89417145876976 386.9088900845312" stroke-opacity="0.9" stroke-linejoin="round" stroke-miterlimit="10" stroke-width="1.5" stroke-dasharray="" fill-opacity="0.9"/></g><g class="dcg-svg-axis-line"><path fill="rgb(0,0,0)" stroke="rgb(0,0,0)" class="dcg-svg-axis-line" paint-order="stroke fill markers" d=" M 200 1.5 L 203.10582854123024 13.09110991546882 L 196.89417145876976 13.09110991546882 L 200 1.5 L 203.10582854123024 13.09110991546882" stroke-opacity="0.9" stroke-linejoin="round" stroke-miterlimit="10" stroke-width="1.5" stroke-dasharray="" fill-opacity="0.9"/></g></g></g><g id="xaxis-55969a91"><title>X axis</title><g><path fill="none" stroke="rgb(0,0,0)" class="dcg-svg-axis-line" paint-order="fill stroke markers" d=" M 3 200 L 397 200" stroke-opacity="0.9" stroke-miterlimit="10" stroke-width="1.5" stroke-dasharray=""/><g class="dcg-svg-axis-line"><path fill="rgb(0,0,0)" stroke="rgb(0,0,0)" class="dcg-svg-axis-line" paint-order="stroke fill markers" d=" M 1.5 200 L 13.09110991546882 196.89417145876976 L 13.09110991546882 203.10582854123024 L 1.5 200 L 13.09110991546882 196.89417145876976" stroke-opacity="0.9" stroke-linejoin="round" stroke-miterlimit="10" stroke-width="1.5" stroke-dasharray="" fill-opacity="0.9"/></g><g class="dcg-svg-axis-line"><path fill="rgb(0,0,0)" stroke="rgb(0,0,0)" class="dcg-svg-axis-line" paint-order="stroke fill markers" d=" M 398.5 200 L 386.9088900845312 203.10582854123027 L 386.9088900845312 196.89417145876976 L 398.5 200 L 386.9088900845312 203.10582854123027" stroke-opacity="0.9" stroke-linejoin="round" stroke-miterlimit="10" stroke-width="1.5" stroke-dasharray="" fill-opacity="0.9"/></g></g></g><g><g><path fill="none" stroke="rgb(0,0,0)" class="dcg-svg-tickmark" paint-order="fill stroke markers" d="" stroke-opacity="0.9" stroke-miterlimit="2" stroke-width="1.5" stroke-dasharray=""/></g></g></g></g><g id="expressions-55969a91"><g id="sketch-55969a91"><title>Expression 2</title><path fill="#c74440" stroke="none" paint-order="stroke fill markers" d="" fill-opacity="0.4"/><g><path fill="none" stroke="#c74440" class="dcg-svg-curve" paint-order="fill stroke markers" d=" M 0 58.57864376269049 L 10.344513597834025 62.319103416827524 M 16.927385887364768 64.69939592400564 L 17.3828125 64.86407305975217 M 17.3828125 64.86407305975217 L 27.217310811189325 68.58736528396311 M 33.76279864328645 71.06854946606639 L 43.9869232686845 75.12653857944869 M 50.481743181384246 77.73702382671863 L 60.635614226976635 81.96773331680188 M 67.06553856400238 84.73402378757491 L 76.26953125 88.76580168401446 M 76.26953125 88.76580168401446 L 77.13370710145941 89.16442037047898 M 83.49007110129652 92.0964225365039 L 88.57421875 94.44158903715915 M 88.57421875 94.44158903715915 L 93.4310355301012 96.8043319467544 M 99.72569788497881 99.86655758149892 L 100 100 M 100 100 L 109.51175339118976 104.889657187198 M 115.67419198862763 108.20934035956147 L 120.41015625 110.78685985237377 M 120.41015625 110.78685985237377 L 125.26672158310036 113.59117170838965 M 131.29932764193276 117.14083152344637 L 137.79296875 121.12856584922524 M 137.79296875 121.12856584922524 L 140.62062654266944 122.97965573425327 M 146.45503132861813 126.84652090179213 L 152.44140625 131.03726096651903 M 152.44140625 131.03726096651903 L 155.39343219962421 133.2554554336384 M 160.93097575551297 137.53570153273043 L 164.74609375 140.625 M 164.74609375 140.625 L 169.327270248375 144.6390187906109 M 174.4209892573286 149.4394642493976 L 174.8046875 149.80506748684684 M 174.8046875 149.80506748684684 L 179.1015625 154.28519113022566 M 179.1015625 154.28519113022566 L 181.89807780265247 157.5019284516099 M 186.27443651487374 162.96292268668068 L 186.42578125 163.15679336702627 M 186.42578125 163.15679336702627 L 189.453125 167.52404735808355 M 189.453125 167.52404735808355 L 191.9921875 171.70192144332057 M 191.9921875 171.70192144332057 L 192.24919714205728 172.18955850154646 M 195.34002073253754 178.46662681111295 L 195.703125 179.27109506027875 M 195.703125 179.27109506027875 L 197.0703125 182.88367007796356 M 197.0703125 182.88367007796356 L 198.14453125 186.3784408014354 M 198.14453125 186.3784408014354 L 198.7506429063933 188.90537885504764 M 199.82251488362053 195.81688162805622 L 199.90234375 196.875 M 199.90234375 196.875 L 200 200" stroke-linecap="round" stroke-linejoin="round" stroke-miterlimit="10" stroke-width="2.5" stroke-dasharray=""/></g></g><g id="sketch-55969a91"><title>Expression 4</title><path fill="#000000" stroke="none" paint-order="stroke fill markers" d="" fill-opacity="0.4"/><g><path fill="none" stroke="#000000" class="dcg-svg-curve" paint-order="fill stroke markers" d=" M 0 400 L 7.778174593052023 392.22182540694797 M 12.727922061357855 387.27207793864216 L 20.506096654409877 379.4939033455901 M 25.45584412271571 374.5441558772843 L 33.23401871576773 366.7659812842323 M 38.18376618407356 361.81623381592647 L 45.961940777125584 354.03805922287444 M 50.911688245431414 349.0883117545686 L 58.689862838483435 341.3101371615166 M 63.639610306789265 336.3603896932108 L 71.4177848998413 328.58221510015875 M 76.36753236814712 323.63246763185293 L 84.14570696119915 315.8542930388009 M 89.09545442950498 310.9045455704951 L 96.87362902255701 303.12637097744306 M 101.82337649086284 298.17662350913724 L 109.60155108391487 290.3984489160852 M 114.5512985522207 285.4487014477794 L 122.32947314527273 277.67052685472737 M 127.27922061357856 272.72077938642155 L 135.0573952066306 264.9426047933695 M 140.00714267493643 259.9928573250637 L 147.78531726798846 252.21468273201168 M 152.7350647362943 247.26493526370584 L 160.51323932934633 239.4867606706538 M 165.46298679765218 234.53701320234796 L 173.2411613907042 226.75883860929594 M 178.19090885901005 221.8090911409901 L 185.96908345206208 214.03091654793806 M 190.91883092036792 209.08116907963222 L 198.69700551341995 201.3029944865802 M 203.6467529817258 196.35324701827435 L 211.42492757477783 188.57507242522232 M 216.37467504308364 183.62532495691647 L 224.15284963613567 175.84715036386444 M 229.1025971044415 170.8974028955586 L 236.88077169749351 163.11922830250657 M 241.83051916579933 158.16948083420073 L 249.60869375885136 150.3913062411487 M 254.55844122715718 145.44155877284285 L 262.3366158202092 137.66338417979082 M 267.286363288515 132.71363671148498 L 275.06453788156705 124.93546211843297 M 280.01428534987286 119.98571465012714 L 287.7924599429249 112.20754005707512 M 292.7422074112307 107.25779258876929 L 300.52038200428274 99.47961799571728 M 305.47012947258855 94.52987052741145 L 313.2483040656406 86.75169593435943 M 318.1980515339464 81.8019484660536 L 325.9762261269984 74.02377387300159 M 330.92597359530424 69.07402640469576 L 338.70414818835627 61.295851811643736 M 343.6538956566621 56.346104343337906 L 351.4320702497141 48.567929750285884 M 356.38181771801993 43.618182281980054 L 364.15999231107196 35.84000768892803 M 369.1097397793778 30.890260220622203 L 376.8879143724298 23.11208562757018 M 381.8376618407356 18.16233815926435 L 389.61583643378765 10.38416356621233 M 394.56558390209346 5.434416097906497 L 400 0" stroke-linecap="round" stroke-linejoin="round" stroke-miterlimit="10" stroke-width="2.5" stroke-dasharray=""/></g></g></g><g id="labels-55969a91"/></g></svg>