<svg version="1.1" xmlns="http://www.w3.org/2000/svg" xmlns:xlink="http://www.w3.org/1999/xlink" width="800" height="800"><defs/><g transform="scale(2,2)"><g id="background-8be9f96f"><rect fill="white" stroke="none" x="0" y="0" width="400" height="400" class="dcg-svg-background"/></g><g id="background-images-8be9f96f"/><g id="graphpaper-8be9f96f"><g id="axis-8be9f96f"><g id="yaxis-8be9f96f"><title>Y axis</title><g><path fill="none" stroke="rgb(0,0,0)" class="dcg-svg-axis-line" paint-order="fill stroke markers" d=" M 200 3 L 200 397" stroke-opacity="0.9" stroke-miterlimit="10" stroke-width="1.5" stroke-dasharray=""/><g class="dcg-svg-axis-line"><path fill="rgb(0,0,0)" stroke="rgb(0,0,0)" class="dcg-svg-axis-line" paint-order="stroke fill markers" d=" M 200 398.5 L 196.89417145876976 386.9088900845312 L 203.10582854123024 386.9088900845312 L 200 398.5 L 196.89417145876976 386.9088900845312" stroke-opacity="0.9" stroke-linejoin="round" stroke-miterlimit="10" stroke-width="1.5" stroke-dasharray="" fill-opacity="0.9"/></g><g class="dcg-svg-axis-line"><path fill="rgb(0,0,0)" stroke="rgb(0,0,0)" class="dcg-svg-axis-line" paint-order="stroke fill markers" d=" M 200 1.5 L 203.10582854123024 13.09110991546882 L 196.89417145876976 13.09110991546882 L 200 1.5 L 203.10582854123024 13.09110991546882" stroke-opacity="0.9" stroke-linejoin="round" stroke-miterlimit="10" stroke-width="1.5" stroke-dasharray="" fill-opacity="0.9"/></g></g></g><g id="xaxis-8be9f96f"><title>X axis</title><g><path fill="none" stroke="rgb(0,0,0)" class="dcg-svg-axis-line" paint-order="fill stroke markers" d=" M 3 200 L 397 200" stroke-opacity="0.9" stroke-miterlimit="10" stroke-width="1.5" stroke-dasharray=""/><g class="dcg-svg-axis-line"><path fill="rgb(0,0,0)" stroke="rgb(0,0,0)" class="dcg-svg-axis-line" paint-order="stroke fill markers" d=" M 1.5 200 L 13.09110991546882 196.89417145876976 L 13.09110991546882 203.10582854123024 L 1.5 200 L 13.09110991546882 196.89417145876976" stroke-opacity="0.9" stroke-linejoin="round" stroke-miterlimit="10" stroke-width="1.5" stroke-dasharray="" fill-opacity="0.9"/></g><g class="dcg-svg-axis-line"><path fill="rgb(0,0,0)" stroke="rgb(0,0,0)" class="dcg-svg-axis-line" paint-order="stroke fill markers" d=" M 398.5 200 L 386.9088900845312 203.10582854123027 L 386.9088900845312 196.89417145876976 L 398.5 200 L 386.9088900845312 203.10582854123027" stroke-opacity="0.9" stroke-linejoin="round" stroke-miterlimit="10" stroke-width="1.5" stroke-dasharray="" fill-opacity="0.9"/></g></g></g><g><g><path fill="none" stroke="rgb(0,0,0)" class="dcg-svg-tickmark" paint-order="fill stroke markers" d="" stroke-opacity="0.9" stroke-miterlimit="2" stroke-width="1.5" stroke-dasharray=""/></g></g></g></g><g id="expressions-8be9f96f"><g id="sketch-8be9f96f"><title>Expression 1</title><path fill="#c74440" stroke="none" paint-order="stroke fill markers" d="" fill-opacity="0.4"/><g><path fill="none" stroke="#c74440" class="dcg-svg-curve" paint-order="fill stroke markers" d=" M 200 200 L 200 200 L 203.61328125 200.13055801391602 L 207.2265625 200.52223205566406 L 210.83984375 201.17502212524414 L 214.453125 202.08892822265625 L 218.1640625 203.29933166503906 L 221.875 204.78515625 L 225.68359375 206.5964698791504 L 229.58984375 208.75558853149414 L 233.49609375 211.2198829650879 L 237.5 214.0625 L 241.6015625 217.30690002441406 L 245.8984375 221.06666564941406 L 250.29296875 225.29382705688477 L 254.78515625 230.01413345336914 L 259.47265625 235.36996841430664 L 264.35546875 241.41626358032227 L 269.3359375 248.07472229003906 L 274.4140625 255.37452697753906 L 279.4921875 263.19007873535156 L 284.66796875 271.68664932250977 L 289.84375 280.718994140625 L 295.01953125 290.28711318969727 L 300.29296875 300.58679580688477 L 305.56640625 311.4426612854004 L 310.9375 323.0712890625 L 316.40625 335.504150390625 L 321.875 348.53515625 L 327.44140625 362.4131202697754 L 333.10546875 377.17065811157227 L 338.76953125 392.56982803344727 L 343.33364572561186 405.5" stroke-linecap="round" stroke-linejoin="round" stroke-miterlimit="10" stroke-width="2.5" stroke-dasharray=""/></g></g><g id="sketch-8be9f96f"><title>Expression 4</title><path fill="#000000" stroke="none" paint-order="stroke fill markers" d="" fill-opacity="0.4"/><g><path fill="none" stroke="#000000" class="dcg-svg-curve" paint-order="fill stroke markers" d=" M 0 400 L 7.778174593052023 392.22182540694797 M 12.727922061357855 387.27207793864216 L 20.506096654409877 379.4939033455901 M 25.45584412271571 374.5441558772843 L 33.23401871576773 366.7659812842323 M 38.18376618407356 361.81623381592647 L 45.961940777125584 354.03805922287444 M 50.911688245431414 349.0883117545686 L 58.689862838483435 341.3101371615166 M 63.639610306789265 336.3603896932108 L 71.4177848998413 328.58221510015875 M 76.36753236814712 323.63246763185293 L 84.14570696119915 315.8542930388009 M 89.09545442950498 310.9045455704951 L 96.87362902255701 303.12637097744306 M 101.82337649086284 298.17662350913724 L 109.60155108391487 290.3984489160852 M 114.5512985522207 285.4487014477794 L 122.32947314527273 277.67052685472737 M 127.27922061357856 272.72077938642155 L 135.0573952066306 264.9426047933695 M 140.00714267493643 259.9928573250637 L 147.78531726798846 252.21468273201168 M 152.7350647362943 247.26493526370584 L 160.51323932934633 239.4867606706538 M 165.46298679765218 234.53701320234796 L 173.2411613907042 226.75883860929594 M 178.19090885901005 221.8090911409901 L 185.96908345206208 214.03091654793806 M 190.91883092036792 209.08116907963222 L 198.69700551341995 201.3029944865802 M 203.6467529817258 196.35324701827435 L 211.42492757477783 188.57507242522232 M 216.37467504308364 183.62532495691647 L 224.15284963613567 175.84715036386444 M 229.1025971044415 170.8974028955586 L 236.88077169749351 163.11922830250657 M 241.83051916579933 158.16948083420073 L 249.60869375885136 150.3913062411487 M 254.55844122715718 145.44155877284285 L 262.3366158202092 137.66338417979082 M 267.286363288515 132.71363671148498 L 275.06453788156705 124.93546211843297 M 280.01428534987286 119.98571465012714 L 287.7924599429249 112.20754005707512 M 292.7422074112307 107.25779258876929 L 300.52038200428274 99.47961799571728 M 305.47012947258855 94.52987052741145 L 313.2483040656406 86.75169593435943 M 318.1980515339464 81.8019484660536 L 325.9762261269984 74.02377387300159 M 330.92597359530424 69.07402640469576 L 338.70414818835627 61.295851811643736 M 343.6538956566621 56.346104343337906 L 351.4320702497141 48.567929750285884 M 356.38181771801993 43.618182281980054 L 364.15999231107196 35.84000768892803 M 369.1097397793778 30.890260220622203 L 376.8879143724298 23.11208562757018 M 381.8376618407356 18.16233815926435 L 389.61583643378765 10.38416356621233 M 394.56558390209346 5.434416097906497 L 400 0" stroke-linecap="round" stroke-linejoin="round" stroke-miterlimit="10" stroke-width="2.5" stroke-dasharray=""/></g></g></g><g id="labels-8be9f96f"/></g></svg>