<svg version="1.1" xmlns="http://www.w3.org/2000/svg" xmlns:xlink="http://www.w3.org/1999/xlink" width="800" height="800"><defs/><g transform="scale(2,2)"><g id="background-b0b6c54f"><rect fill="white" stroke="none" x="0" y="0" width="400" height="400" class="dcg-svg-background"/></g><g id="background-images-b0b6c54f"/><g id="graphpaper-b0b6c54f"><g id="axis-b0b6c54f"><g id="yaxis-b0b6c54f"><title>Y axis</title><g><path fill="none" stroke="rgb(0,0,0)" class="dcg-svg-axis-line" paint-order="fill stroke markers" d=" M 200 3 L 200 397" stroke-opacity="0.9" stroke-miterlimit="10" stroke-width="1.5" stroke-dasharray=""/><g class="dcg-svg-axis-line"><path fill="rgb(0,0,0)" stroke="rgb(0,0,0)" class="dcg-svg-axis-line" paint-order="stroke fill markers" d=" M 200 398.5 L 196.89417145876976 386.9088900845312 L 203.10582854123024 386.9088900845312 L 200 398.5 L 196.89417145876976 386.9088900845312" stroke-opacity="0.9" stroke-linejoin="round" stroke-miterlimit="10" stroke-width="1.5" stroke-dasharray="" fill-opacity="0.9"/></g><g class="dcg-svg-axis-line"><path fill="rgb(0,0,0)" stroke="rgb(0,0,0)" class="dcg-svg-axis-line" paint-order="stroke fill markers" d=" M 200 1.5 L 203.10582854123024 13.09110991546882 L 196.89417145876976 13.09110991546882 L 200 1.5 L 203.10582854123024 13.09110991546882" stroke-opacity="0.9" stroke-linejoin="round" stroke-miterlimit="10" stroke-width="1.5" stroke-dasharray="" fill-opacity="0.9"/></g></g></g><g id="xaxis-b0b6c54f"><title>X axis</title><g><path fill="none" stroke="rgb(0,0,0)" class="dcg-svg-axis-line" paint-order="fill stroke markers" d=" M 3 200 L 397 200" stroke-opacity="0.9" stroke-miterlimit="10" stroke-width="1.5" stroke-dasharray=""/><g class="dcg-svg-axis-line"><path fill="rgb(0,0,0)" stroke="rgb(0,0,0)" class="dcg-svg-axis-line" paint-order="stroke fill markers" d=" M 1.5 200 L 13.09110991546882 196.89417145876976 L 13.09110991546882 203.10582854123024 L 1.5 200 L 13.09110991546882 196.89417145876976" stroke-opacity="0.9" stroke-linejoin="round" stroke-miterlimit="10" stroke-width="1.5" stroke-dasharray="" fill-opacity="0.9"/></g><g class="dcg-svg-axis-line"><path fill="rgb(0,0,0)" stroke="rgb(0,0,0)" class="dcg-svg-axis-line" paint-order="stroke fill markers" d=" M 398.5 200 L 386.9088900845312 203.10582854123027 L 386.9088900845312 196.89417145876976 L 398.5 200 L 386.9088900845312 203.10582854123027" stroke-opacity="0.9" stroke-linejoin="round" stroke-miterlimit="10" stroke-width="1.5" stroke-dasharray="" fill-opacity="0.9"/></g></g></g><g><g><path fill="none" stroke="rgb(0,0,0)" class="dcg-svg-tickmark" paint-order="fill stroke markers" d="" stroke-opacity="0.9" stroke-miterlimit="2" stroke-width="1.5" stroke-dasharray=""/></g></g></g></g><g id="expressions-b0b6c54f"><g id="sketch-b0b6c54f"><title>Expression 4</title><path fill="#000000" stroke="none" paint-order="stroke fill markers" d="" fill-opacity="0.4"/><g><path fill="none" stroke="#000000" class="dcg-svg-curve" paint-order="fill stroke markers" d=" M 0 400 L 7.778174593052023 392.22182540694797 M 12.727922061357855 387.27207793864216 L 20.506096654409877 379.4939033455901 M 25.45584412271571 374.5441558772843 L 33.23401871576773 366.7659812842323 M 38.18376618407356 361.81623381592647 L 45.961940777125584 354.03805922287444 M 50.911688245431414 349.0883117545686 L 58.689862838483435 341.3101371615166 M 63.639610306789265 336.3603896932108 L 71.4177848998413 328.58221510015875 M 76.36753236814712 323.63246763185293 L 84.14570696119915 315.8542930388009 M 89.09545442950498 310.9045455704951 L 96.87362902255701 303.12637097744306 M 101.82337649086284 298.17662350913724 L 109.60155108391487 290.3984489160852 M 114.5512985522207 285.4487014477794 L 122.32947314527273 277.67052685472737 M 127.27922061357856 272.72077938642155 L 135.0573952066306 264.9426047933695 M 140.00714267493643 259.9928573250637 L 147.78531726798846 252.21468273201168 M 152.7350647362943 247.26493526370584 L 160.51323932934633 239.4867606706538 M 165.46298679765218 234.53701320234796 L 173.2411613907042 226.75883860929594 M 178.19090885901005 221.8090911409901 L 185.96908345206208 214.03091654793806 M 190.91883092036792 209.08116907963222 L 198.69700551341995 201.3029944865802 M 203.6467529817258 196.35324701827435 L 211.42492757477783 188.57507242522232 M 216.37467504308364 183.62532495691647 L 224.15284963613567 175.84715036386444 M 229.1025971044415 170.8974028955586 L 236.88077169749351 163.11922830250657 M 241.83051916579933 158.16948083420073 L 249.60869375885136 150.3913062411487 M 254.55844122715718 145.44155877284285 L 262.3366158202092 137.66338417979082 M 267.286363288515 132.71363671148498 L 275.06453788156705 124.93546211843297 M 280.01428534987286 119.98571465012714 L 287.7924599429249 112.20754005707512 M 292.7422074112307 107.25779258876929 L 300.52038200428274 99.47961799571728 M 305.47012947258855 94.52987052741145 L 313.2483040656406 86.75169593435943 M 318.1980515339464 81.8019484660536 L 325.9762261269984 74.02377387300159 M 330.92597359530424 69.07402640469576 L 338.70414818835627 61.295851811643736 M 343.6538956566621 56.346104343337906 L 351.4320702497141 48.567929750285884 M 356.38181771801993 43.618182281980054 L 364.15999231107196 35.84000768892803 M 369.1097397793778 30.890260220622203 L 376.8879143724298 23.11208562757018 M 381.8376618407356 18.16233815926435 L 389.61583643378765 10.38416356621233 M 394.56558390209346 5.434416097906497 L 400 0" stroke-linecap="round" stroke-linejoin="round" stroke-miterlimit="10" stroke-width="2.5" stroke-dasharray=""/></g></g><g id="sketch-b0b6c54f"><title>Expression 5</title><path fill="#c74440" stroke="none" paint-order="stroke fill markers" d="" fill-opacity="0.4"/><g><path fill="none" stroke="#c74440" class="dcg-svg-curve" paint-order="fill stroke markers" d=" M 0 58.57864376269049 L 0 58.57864376269049 L 17.3828125 64.86407305975217 L 33.59375 71.00145349656066 L 48.828125 77.0480276693375 L 62.98828125 82.94799499794973 L 76.26953125 88.76580168401446 L 88.57421875 94.44158903715915 L 100 100 L 110.64453125 105.47197836091142 L 120.41015625 110.78685985237377 L 129.4921875 116.03106973409749 L 137.79296875 121.12856584922524 L 145.41015625 126.11505989039445 L 152.44140625 131.03726096651903 L 158.88671875 135.88036084786503 L 164.74609375 140.625 L 170.01953125 145.2455766627024 L 174.8046875 149.80506748684684 L 179.1015625 154.28519113022566 L 183.0078125 158.7784188803971 L 186.42578125 163.15679336702627 L 189.453125 167.52404735808355 L 191.9921875 171.70192144332057 L 194.04296875 175.5929697627917 L 195.703125 179.27109506027875 L 197.0703125 182.88367007796356 L 198.14453125 186.3784408014354 L 198.92578125 189.63554753013938 L 199.51171875 193.01228757031316 L 199.8046875 195.58058261758407 L 199.90234375 196.875 L 200.09765625 200.00009536743164 L 203.7109375 200.13771057128906 L 207.32421875 200.53644180297852 L 210.9375 201.1962890625 L 214.55078125 202.11725234985352 L 218.26171875 203.33490371704102 L 221.97265625 204.82797622680664 L 225.78125 206.646728515625 L 229.6875 208.8134765625 L 233.59375 211.285400390625 L 237.59765625 214.13583755493164 L 241.69921875 217.38824844360352 L 245.99609375 221.1564064025879 L 250.390625 225.39215087890625 L 254.8828125 230.12123107910156 L 259.5703125 235.48622131347656 L 264.453125 241.54205322265625 L 269.43359375 248.2102394104004 L 274.51171875 255.51996231079102 L 279.58984375 263.34543228149414 L 284.765625 271.85211181640625 L 289.94140625 280.8945655822754 L 295.1171875 290.47279357910156 L 300.390625 300.78277587890625 L 305.6640625 311.64894104003906 L 311.03515625 323.28805923461914 L 316.50390625 335.7316017150879 L 321.97265625 348.77328872680664 L 327.5390625 362.66212463378906 L 333.203125 377.43072509765625 L 338.8671875 392.84095764160156 L 343.3325196994488 405.5" stroke-linecap="round" stroke-linejoin="round" stroke-miterlimit="10" stroke-width="2.5" stroke-dasharray=""/></g></g></g><g id="labels-b0b6c54f"/></g></svg>